<svg width="46" height="46" viewBox="0 0 46 46" fill="none" xmlns="http://www.w3.org/2000/svg">
<g clip-path="url(#clip0_1_190)">
<path d="M22.9997 46.0015C35.7021 46.0015 45.9995 35.7042 45.9995 23.0017C45.9995 10.2993 35.7021 0.00201416 22.9997 0.00201416C10.2973 0.00201416 0 10.2993 0 23.0017C0 35.7042 10.2973 46.0015 22.9997 46.0015Z" fill="#41B4E6"/>
<path d="M46 23.0003C46 22.4399 45.9789 21.8846 45.9395 21.3341L36.4072 11.8019L9.5928 22.3495L19.8521 32.6089L19.9867 33.0934L20.1609 32.9177L20.1617 32.9185L19.9867 33.0934L31.3355 44.4422C39.9174 41.1036 46 32.7628 46 23.0003Z" fill="#0091C8"/>
<path d="M20.7663 26.3512L31.1604 34.1988L36.4072 11.8019L9.59271 22.3495L17.7521 25.0521L32.643 15.0636L20.7663 26.3512Z" fill="white"/>
<path d="M17.752 25.0521L19.9867 33.0934L20.7663 26.3512L32.643 15.0636L17.752 25.0521Z" fill="#D2D2D7"/>
<path d="M24.1444 28.9017L19.9867 33.0935L20.7663 26.3513L24.1444 28.9017Z" fill="#B9B9BE"/>
</g>
<defs>
<clipPath id="clip0_1_190">
<rect width="46" height="46" fill="white"/>
</clipPath>
</defs>
</svg>
